<svg width="53" height="52" viewBox="0 0 53 52" fill="none" xmlns="http://www.w3.org/2000/svg">
<path d="M52.0014 26C52.0014 32.8956 49.2622 39.5088 44.3862 44.3848C39.5103 49.2607 32.8971 52 26.0014 52C19.1058 52 12.4926 49.2607 7.61666 44.3848C2.74071 39.5088 0.00143433 32.8956 0.00143433 26C0.00143433 19.1044 2.74071 12.4912 7.61666 7.61522C12.4926 2.73928 19.1058 0 26.0014 0C32.8971 0 39.5103 2.73928 44.3862 7.61522C49.2622 12.4912 52.0014 19.1044 52.0014 26V26ZM27.6264 14.625C27.6264 14.194 27.4552 13.7807 27.1505 13.476C26.8457 13.1712 26.4324 13 26.0014 13C25.5705 13 25.1571 13.1712 24.8524 13.476C24.5476 13.7807 24.3764 14.194 24.3764 14.625V24.375H14.6264C14.1955 24.375 13.7821 24.5462 13.4774 24.851C13.1726 25.1557 13.0014 25.569 13.0014 26C13.0014 26.431 13.1726 26.8443 13.4774 27.149C13.7821 27.4538 14.1955 27.625 14.6264 27.625H24.3764V37.375C24.3764 37.806 24.5476 38.2193 24.8524 38.524C25.1571 38.8288 25.5705 39 26.0014 39C26.4324 39 26.8457 38.8288 27.1505 38.524C27.4552 38.2193 27.6264 37.806 27.6264 37.375V27.625H37.3764C37.8074 27.625 38.2207 27.4538 38.5255 27.149C38.8302 26.8443 39.0014 26.431 39.0014 26C39.0014 25.569 38.8302 25.1557 38.5255 24.851C38.2207 24.5462 37.8074 24.375 37.3764 24.375H27.6264V14.625Z" fill="#388CEF"/>
</svg>
