<svg width="31" height="30" viewBox="0 0 31 30" fill="none" xmlns="http://www.w3.org/2000/svg">
<path d="M30.0014 15C30.0014 18.9782 28.4211 22.7936 25.608 25.6066C22.795 28.4196 18.9797 30 15.0014 30C11.0232 30 7.20788 28.4196 4.39483 25.6066C1.58179 22.7936 0.00143433 18.9782 0.00143433 15C0.00143433 11.0218 1.58179 7.20644 4.39483 4.3934C7.20788 1.58035 11.0232 0 15.0014 0C18.9797 0 22.795 1.58035 25.608 4.3934C28.4211 7.20644 30.0014 11.0218 30.0014 15V15ZM22.5577 9.31875C22.4238 9.18528 22.2643 9.0802 22.0888 9.00978C21.9133 8.93936 21.7255 8.90505 21.5364 8.9089C21.3474 8.91275 21.1611 8.95468 20.9886 9.03219C20.8161 9.1097 20.6611 9.22119 20.5327 9.36L14.0208 17.6569L10.0964 13.7306C9.82986 13.4822 9.47727 13.347 9.11295 13.3534C8.74864 13.3599 8.40104 13.5074 8.14339 13.7651C7.88574 14.0227 7.73816 14.3703 7.73173 14.7346C7.7253 15.099 7.86053 15.4515 8.10893 15.7181L13.0702 20.6812C13.2038 20.8147 13.363 20.9198 13.5382 20.9904C13.7133 21.0609 13.9009 21.0955 14.0897 21.092C14.2785 21.0885 14.4647 21.047 14.6371 20.97C14.8095 20.893 14.9647 20.782 15.0933 20.6438L22.5783 11.2875C22.8335 11.0222 22.9745 10.6674 22.9709 10.2993C22.9674 9.9312 22.8197 9.57916 22.5596 9.31875H22.5577Z" fill="#BABABA"/>
</svg>
