<svg width="27" height="30" viewBox="0 0 27 30" fill="none" xmlns="http://www.w3.org/2000/svg">
<path d="M2.84518 1.9375C2.33133 1.9375 1.83852 2.14163 1.47516 2.50498C1.11181 2.86833 0.907684 3.36114 0.907684 3.875V5.8125C0.907684 6.32636 1.11181 6.81917 1.47516 7.18252C1.83852 7.54587 2.33133 7.75 2.84518 7.75H3.81393V25.1875C3.81393 26.2152 4.22219 27.2008 4.9489 27.9275C5.6756 28.6542 6.66122 29.0625 7.68893 29.0625H19.3139C20.3416 29.0625 21.3273 28.6542 22.054 27.9275C22.7807 27.2008 23.1889 26.2152 23.1889 25.1875V7.75H24.1577C24.6715 7.75 25.1644 7.54587 25.5277 7.18252C25.8911 6.81917 26.0952 6.32636 26.0952 5.8125V3.875C26.0952 3.36114 25.8911 2.86833 25.5277 2.50498C25.1644 2.14163 24.6715 1.9375 24.1577 1.9375H17.3764C17.3764 1.42364 17.1723 0.930832 16.809 0.567481C16.4456 0.204129 15.9528 0 15.4389 0L11.5639 0C11.0501 0 10.5573 0.204129 10.1939 0.567481C9.83056 0.930832 9.62643 1.42364 9.62643 1.9375H2.84518ZM8.65768 9.6875C8.91461 9.6875 9.16102 9.78956 9.34269 9.97124C9.52437 10.1529 9.62643 10.3993 9.62643 10.6562V24.2188C9.62643 24.4757 9.52437 24.7221 9.34269 24.9038C9.16102 25.0854 8.91461 25.1875 8.65768 25.1875C8.40076 25.1875 8.15435 25.0854 7.97267 24.9038C7.791 24.7221 7.68893 24.4757 7.68893 24.2188V10.6562C7.68893 10.3993 7.791 10.1529 7.97267 9.97124C8.15435 9.78956 8.40076 9.6875 8.65768 9.6875V9.6875ZM13.5014 9.6875C13.7584 9.6875 14.0048 9.78956 14.1864 9.97124C14.3681 10.1529 14.4702 10.3993 14.4702 10.6562V24.2188C14.4702 24.4757 14.3681 24.7221 14.1864 24.9038C14.0048 25.0854 13.7584 25.1875 13.5014 25.1875C13.2445 25.1875 12.9981 25.0854 12.8164 24.9038C12.6347 24.7221 12.5327 24.4757 12.5327 24.2188V10.6562C12.5327 10.3993 12.6347 10.1529 12.8164 9.97124C12.9981 9.78956 13.2445 9.6875 13.5014 9.6875V9.6875ZM19.3139 10.6562V24.2188C19.3139 24.4757 19.2119 24.7221 19.0302 24.9038C18.8485 25.0854 18.6021 25.1875 18.3452 25.1875C18.0883 25.1875 17.8418 25.0854 17.6602 24.9038C17.4785 24.7221 17.3764 24.4757 17.3764 24.2188V10.6562C17.3764 10.3993 17.4785 10.1529 17.6602 9.97124C17.8418 9.78956 18.0883 9.6875 18.3452 9.6875C18.6021 9.6875 18.8485 9.78956 19.0302 9.97124C19.2119 10.1529 19.3139 10.3993 19.3139 10.6562V10.6562Z" fill="#FF3636"/>
</svg>
